<?xml version="1.0"?>
<svg xmlns="http://www.w3.org/2000/svg" xmlns:xlink="http://www.w3.org/1999/xlink" xmlns:svgjs="http://svgjs.com/svgjs" version="1.1" width="512" height="512" x="0" y="0" viewBox="0 0 512 512.00012" style="enable-background:new 0 0 512 512" xml:space="preserve"><g><path xmlns="http://www.w3.org/2000/svg" d="m8.539062 512h443.730469c4.710938 0 8.53125-3.820312 8.53125-8.535156 0-2.457032-1.0625-4.796875-2.910156-6.414063l-136.53125-119.46875c-3.21875-2.816406-8.027344-2.816406-11.246094 0l-78.992187 69.121094-64.855469-36.019531c-2.578125-1.433594-5.714844-1.433594-8.292969 0l-153.597656 85.332031c-4.117188 2.300781-5.589844 7.5-3.289062 11.613281 1.507812 2.699219 4.359374 4.371094 7.453124 4.371094zm307.195313-116.660156 113.820313 99.59375h-227.636719zm-153.597656 32.554687 55.339843 30.722657-41.480468 36.316406h-134.527344zm0 0" fill="#ffffff" data-original="#000000" style=""/><path xmlns="http://www.w3.org/2000/svg" d="m302.808594 183.597656c-39.988282-39.953125-104.792969-39.921875-144.742188.066406-39.953125 39.988282-39.921875 104.792969.066406 144.742188 39.960938 39.925781 104.714844 39.925781 144.675782 0 39.925781-40.015625 39.925781-104.796875 0-144.808594zm-132.746094 132.742188c-33.324219-33.324219-33.324219-87.355469 0-120.679688 33.324219-33.324218 87.355469-33.324218 120.679688 0 33.324218 33.324219 33.324218 87.355469 0 120.679688-33.347657 33.273437-87.332032 33.273437-120.679688 0zm0 0" fill="#ffffff" data-original="#000000" style=""/><path xmlns="http://www.w3.org/2000/svg" d="m210.90625 190.566406c-22.078125 6.59375-39.34375 23.859375-45.9375 45.9375-1.339844 4.515625 1.234375 9.265625 5.753906 10.605469.785156.238281 1.605469.359375 2.429688.359375 3.773437-.003906 7.101562-2.484375 8.175781-6.101562 4.945313-16.550782 17.890625-29.496094 34.441406-34.441407 4.507813-1.375 7.042969-6.144531 5.667969-10.652343-1.359375-4.460938-6.050781-7.003907-10.53125-5.707032zm0 0" fill="#ffffff" data-original="#000000" style=""/><path xmlns="http://www.w3.org/2000/svg" d="m199.683594 49.496094c3.769531 2.828125 9.117187 2.0625 11.945312-1.707032l10.242188-13.652343v42.664062c0 4.714844 3.820312 8.535157 8.53125 8.535157 4.714844 0 8.535156-3.820313 8.535156-8.535157v-42.664062l10.238281 13.652343c2.832031 3.765626 8.183594 4.527344 11.949219 1.695313 3.761719-2.828125 4.523438-8.167969 1.703125-11.9375l-25.597656-34.132813c-.101563-.136718-.273438-.179687-.382813-.296874-2.820312-3.558594-7.988281-4.160157-11.546875-1.34375-.496093.394531-.945312.847656-1.339843 1.34375-.113282.117187-.28125.160156-.382813.296874l-25.601563 34.132813c-2.828124 3.773437-2.0625 9.121094 1.707032 11.949219zm0 0" fill="#ffffff" data-original="#000000" style=""/><path xmlns="http://www.w3.org/2000/svg" d="m339.015625 147.390625c-3.332031-3.332031-8.734375-3.332031-12.066406 0l-12.066407 12.074219c-3.46875 3.191406-3.691406 8.589844-.5 12.058594 3.191407 3.464843 8.589844 3.691406 12.058594.5.171875-.160157.339844-.328126.5-.5l12.074219-12.074219c3.324219-3.332031 3.324219-8.730469 0-12.058594zm0 0" fill="#ffffff" data-original="#000000" style=""/><path xmlns="http://www.w3.org/2000/svg" d="m121.792969 159.457031 12.074219 12.066407c3.464843 3.191406 8.863281 2.964843 12.054687-.5 3.007813-3.265626 3.007813-8.292969 0-11.558594l-12.074219-12.074219c-3.390625-3.273437-8.792968-3.179687-12.066406.207031-3.191406 3.308594-3.191406 8.550782 0 11.859375zm0 0" fill="#ffffff" data-original="#000000" style=""/><path xmlns="http://www.w3.org/2000/svg" d="m68.269531 247.46875c-4.710937 0-8.53125 3.820312-8.53125 8.53125 0 4.714844 3.820313 8.535156 8.53125 8.535156h34.132813c4.714844 0 8.535156-3.820312 8.535156-8.535156 0-4.710938-3.820312-8.53125-8.535156-8.53125zm0 0" fill="#ffffff" data-original="#000000" style=""/><path xmlns="http://www.w3.org/2000/svg" d="m221.871094 384v17.066406c0 4.714844 3.820312 8.535156 8.53125 8.535156 4.714844 0 8.535156-3.820312 8.535156-8.535156v-17.066406c0-4.710938-3.820312-8.53125-8.535156-8.53125-4.710938 0-8.53125 3.820312-8.53125 8.53125zm0 0" fill="#ffffff" data-original="#000000" style=""/><path xmlns="http://www.w3.org/2000/svg" d="m358.402344 247.46875c-4.710938 0-8.53125 3.820312-8.53125 8.53125 0 4.714844 3.820312 8.535156 8.53125 8.535156h34.132812c4.714844 0 8.535156-3.820312 8.535156-8.535156 0-4.710938-3.820312-8.53125-8.535156-8.53125zm0 0" fill="#ffffff" data-original="#000000" style=""/><path xmlns="http://www.w3.org/2000/svg" d="m230.402344 102.402344c-4.710938 0-8.53125 3.820312-8.53125 8.53125v17.066406c0 4.714844 3.820312 8.535156 8.53125 8.535156 4.714844 0 8.535156-3.820312 8.535156-8.535156v-17.066406c0-4.710938-3.820312-8.53125-8.535156-8.53125zm0 0" fill="#ffffff" data-original="#000000" style=""/><path xmlns="http://www.w3.org/2000/svg" d="m121.792969 364.613281c3.332031 3.332031 8.730469 3.332031 12.0625 0l12.066406-12.074219c3.191406-3.46875 2.96875-8.867187-.5-12.058593-3.265625-3.003907-8.289063-3.003907-11.554687 0l-12.074219 12.074219c-3.328125 3.332031-3.328125 8.726562 0 12.058593zm0 0" fill="#ffffff" data-original="#000000" style=""/><path xmlns="http://www.w3.org/2000/svg" d="m325.34375 363.171875c3.332031 3.332031 8.738281 3.335937 12.070312.003906 3.335938-3.332031 3.335938-8.738281.003907-12.070312l-12.074219-12.074219c-3.332031-3.332031-8.738281-3.332031-12.070312.003906-3.332032 3.332032-3.328126 8.738282.003906 12.070313zm0 0" fill="#ffffff" data-original="#000000" style=""/></g></svg>
